<?xml version="1.0" encoding="utf-8"?>
<!-- Generator: Adobe Illustrator 26.5.0, SVG Export Plug-In . SVG Version: 6.00 Build 0)  -->
<svg version="1.1" id="レイヤー_1" xmlns="http://www.w3.org/2000/svg" xmlns:xlink="http://www.w3.org/1999/xlink" x="0px"
	 y="0px" viewBox="0 0 188.4 263.75" style="enable-background:new 0 0 188.4 263.75;" xml:space="preserve">
<style type="text/css">
	.st0{fill:#4D4D4D;}
	.st1{fill:#666666;}
	.st2{fill:#EBEBEB;}
	.st3{fill:#FFFFFF;}
</style>
<g>
	<path class="st0" d="M94.86,263.75l-76.31-21.18L1.54,51.83H188.4l-17.02,190.7L94.86,263.75L94.86,263.75z"/>
	<path class="st1" d="M156.8,230.39l14.55-162.97H94.97v180.11L156.8,230.39L156.8,230.39z"/>
	<path class="st2" d="M40.53,138.17l2.1,23.39h52.35v-23.39H40.53L40.53,138.17z"/>
	<path class="st2" d="M36.31,90.82l2.13,23.39h56.53V90.82H36.31L36.31,90.82z"/>
	<path class="st2" d="M94.97,198.92l-0.1,0.03l-26.05-7.03l-1.67-18.66H43.67l3.28,36.73l47.92,13.3l0.11-0.03L94.97,198.92
		L94.97,198.92z"/>
	<path d="M45.52,0h28.33v11.85H57.37V23.7h16.48v11.85H45.52V0L45.52,0z"/>
	<path d="M79.52,0h28.33v10.3H91.37v2.06h16.48v23.7H79.52V25.24H96v-2.06H79.52V0L79.52,0z"/>
	<path d="M113.52,0h28.33v10.3h-16.48v2.06h16.48v23.7h-28.33V25.24H130v-2.06h-16.48L113.52,0L113.52,0z"/>
	<path class="st3" d="M149.27,138.17l4.22-47.35h-58.6v23.39h32.96l-2.13,23.95H94.89v23.39h28.81l-2.72,30.34l-26.09,7.04v24.34
		l47.96-13.29l0.35-3.95l5.5-61.59L149.27,138.17L149.27,138.17z"/>
</g>
</svg>
