<?xml version="1.0" encoding="UTF-8"?><svg id="_レイヤー_1" xmlns="http://www.w3.org/2000/svg" viewBox="0 0 256 255.22"><defs><style>.cls-1{fill:#fff;}.cls-2{fill:#333;}</style></defs><path class="cls-2" d="M256,128C256,57.31,198.69,0,128,0S0,57.31,0,128c0,63.89,46.81,116.84,108,126.45v-89.45h-32.5v-37h32.5v-28.2c0-32.08,19.11-49.8,48.35-49.8,14,0,28.65,2.5,28.65,2.5v31.5h-16.14c-15.9,0-20.86,9.87-20.86,19.99v24.01h35.5l-5.68,37h-29.82v89.45c61.19-9.6,108-62.56,108-126.45"/><path class="cls-1" d="M177.82,164.22l5.68-37h-35.5v-24.01c0-10.12,4.96-19.99,20.86-19.99h16.14v-31.5s-14.65-2.5-28.65-2.5c-29.24,0-48.35,17.72-48.35,49.8v28.2h-32.5v37h32.5v89.45c6.52,1.02,13.2,1.55,20,1.55s13.48-.53,20-1.55v-89.45h29.82"/></svg>