<?xml version="1.0" encoding="utf-8"?>
<!-- Generator: Adobe Illustrator 26.5.0, SVG Export Plug-In . SVG Version: 6.00 Build 0)  -->
<svg version="1.1" id="レイヤー_1" xmlns="http://www.w3.org/2000/svg" xmlns:xlink="http://www.w3.org/1999/xlink" x="0px"
	 y="0px" viewBox="0 0 256 384" style="enable-background:new 0 0 256 384;" xml:space="preserve">
<style type="text/css">
	.st0{fill:#808080;}
	.st1{fill:#4D4D4D;}
	.st2{fill:#333333;}
	.st3{fill:#666666;}
	.st4{fill:#999999;}
</style>
<path class="st0" d="M64,384c35.33,0,64-28.67,64-64v-64H64c-35.33,0-64,28.67-64,64S28.67,384,64,384z"/>
<path class="st1" d="M0,192c0-35.33,28.67-64,64-64h64v128H64C28.67,256,0,227.33,0,192z"/>
<path class="st2" d="M0,64C0,28.67,28.67,0,64,0h64v128H64C28.67,128,0,99.33,0,64z"/>
<path class="st3" d="M128,0h64c35.33,0,64,28.67,64,64s-28.67,64-64,64h-64V0z"/>
<path class="st4" d="M256,192c0,35.33-28.67,64-64,64s-64-28.67-64-64s28.67-64,64-64S256,156.67,256,192z"/>
</svg>
