<?xml version="1.0" encoding="utf-8"?>
<!-- Generator: Adobe Illustrator 26.5.0, SVG Export Plug-In . SVG Version: 6.00 Build 0)  -->
<svg version="1.1" id="レイヤー_1" xmlns="http://www.w3.org/2000/svg" xmlns:xlink="http://www.w3.org/1999/xlink" x="0px"
	 y="0px" viewBox="0 0 256 255.94" style="enable-background:new 0 0 256 255.94;" xml:space="preserve">
<style type="text/css">
	.st0{fill:#808080;}
	.st1{fill:#333333;}
</style>
<path class="st0" d="M0,0h256v256H0V0z"/>
<path class="st1" d="M67.31,213.93l19.59-11.86c3.78,6.7,7.22,12.37,15.46,12.37c7.91,0,12.89-3.09,12.89-15.12v-81.8h24.06v82.14
	c0,24.92-14.61,36.26-35.92,36.26C84.15,235.93,72.98,225.96,67.31,213.93"/>
<path class="st1" d="M152.38,211.35l19.59-11.34c5.16,8.42,11.86,14.61,23.71,14.61c9.97,0,16.32-4.98,16.32-11.86
	c0-8.25-6.53-11.17-17.53-15.98l-6.01-2.58c-17.36-7.39-28.87-16.67-28.87-36.26c0-18.04,13.75-31.79,35.23-31.79
	c15.29,0,26.29,5.33,34.2,19.25l-18.73,12.03c-4.12-7.39-8.59-10.31-15.46-10.31c-7.05,0-11.51,4.47-11.51,10.31
	c0,7.22,4.47,10.14,14.78,14.61l6.01,2.58c20.45,8.76,31.96,17.7,31.96,37.8c0,21.65-17.01,33.51-39.87,33.51
	C173.86,235.93,159.43,225.27,152.38,211.35"/>
</svg>
