<?xml version="1.0" encoding="utf-8"?>
<!-- Generator: Adobe Illustrator 26.5.0, SVG Export Plug-In . SVG Version: 6.00 Build 0)  -->
<svg version="1.1" id="レイヤー_1" xmlns="http://www.w3.org/2000/svg" xmlns:xlink="http://www.w3.org/1999/xlink" x="0px"
	 y="0px" viewBox="0 0 252.9 247" style="enable-background:new 0 0 252.9 247;" xml:space="preserve">
<style type="text/css">
	.st0{fill:#330000;}
	.st1{fill:#FF9A00;}
	.st2{fill:#303030;}
	.st3{fill:#B2B2B2;}
</style>
<g>
	<path class="st0" d="M-243.5,0h171C-49,0-30,19-30,42.5v164.6c0,23.5-19,42.5-42.5,42.5h-171c-23.5,0-42.5-19-42.5-42.5V42.5
		C-286,19-267,0-243.5,0z"/>
	<path class="st1" d="M-161.9,149.8h-39.7l-8.1,25.1c-0.2,0.9-1.1,1.6-2.1,1.5h-20.1c-1.1,0-1.5-0.6-1.2-1.9l34.3-98.9
		c0.3-1,0.7-2.2,1-3.5c0.4-2.3,0.7-4.6,0.7-7c0-0.3,0.1-0.7,0.3-0.9c0.2-0.2,0.6-0.3,0.9-0.3h27.3c0.8,0,1.3,0.3,1.4,0.9l39,109.9
		c0.3,1.1,0,1.7-1,1.7h-22.3c-0.8,0.1-1.5-0.4-1.7-1.2L-161.9,149.8z M-195.4,128.2h27.1l-0.4-1.3l0,0l-0.6-2l0,0l-0.4-1.4l0,0
		l-0.7-2.2l0,0l-1.5-4.7l0,0l-1.3-4.2l0,0l-3.4-10.9l0,0c-0.9-2.8-1.7-5.5-2.5-8.1l-0.6-2.2l0,0l-0.7-2.6l0,0l-1.1-4
		c-0.1-0.3-0.1-0.5-0.2-0.8h-0.2c-0.9,4.1-1.9,8.2-3.1,12.2l-2.5,8.2l0,0l-1.4,4.5l0,0l-1.4,4.6c-0.3,0.8-0.5,1.6-0.8,2.5l-0.8,2.4
		l0,0l-0.8,2.3l0,0l-0.8,2.3l0,0l-0.7,2.2c-0.2,0.7-0.5,1.5-0.7,2.2L-195.4,128.2z M-104.9,82.1c-3.5,0.1-7-1.2-9.4-3.8
		c-2.5-2.7-3.8-6.2-3.6-9.8c-0.1-3.6,1.3-7,3.9-9.5c2.5-2.4,5.8-3.7,9.2-3.7l0.4,0c4.1,0,7.4,1.2,9.7,3.7c2.4,2.6,3.7,6,3.5,9.5
		c0.1,3.6-1.2,7.2-3.7,9.8c-2.5,2.5-6,3.9-9.5,3.8L-104.9,82.1z M-116.8,174.7V92.6c0-1,0.5-1.5,1.4-1.5h21.1c0.9,0,1.4,0.5,1.4,1.5
		v82.1c0,1.1-0.5,1.7-1.4,1.7h-21c-1,0-1.5-0.5-1.5-1.5L-116.8,174.7z"/>
</g>
<path class="st2" d="M41,0.2h171c23.5,0,42.5,19,42.5,42.5v164.6c0,23.5-19,42.5-42.5,42.5H41c-23.5,0-42.5-19-42.5-42.5V42.7
	C-1.5,19.2,17.5,0.2,41,0.2z"/>
<path class="st3" d="M122.5,150H82.8l-8.1,25.1c-0.2,0.9-1.1,1.6-2.1,1.5H52.6c-1.1,0-1.5-0.6-1.2-1.9l34.3-98.9
	c0.3-1,0.7-2.2,1-3.5c0.4-2.3,0.7-4.6,0.7-7c0-0.3,0.1-0.7,0.3-0.9c0.2-0.2,0.6-0.3,0.9-0.3H116c0.8,0,1.3,0.3,1.4,0.9l39,109.9
	c0.3,1.1,0,1.7-1,1.7H133c-0.8,0.1-1.5-0.4-1.7-1.2L122.5,150z M89,128.4h27.1l-0.4-1.3l0,0l-0.6-2l0,0l-0.4-1.4l0,0l-0.7-2.2l0,0
	l-1.5-4.7l0,0l-1.3-4.2l0,0l-3.4-10.9l0,0c-0.9-2.8-1.7-5.5-2.5-8.1l-0.6-2.2l0,0l-0.7-2.6l0,0l-1.1-4c-0.1-0.3-0.1-0.5-0.2-0.8
	h-0.2c-0.9,4.1-1.9,8.2-3.1,12.2l-2.5,8.2l0,0l-1.4,4.5l0,0l-1.4,4.6c-0.3,0.8-0.5,1.6-0.8,2.5l-0.8,2.4l0,0l-0.8,2.3l0,0l-0.8,2.3
	l0,0l-0.7,2.2c-0.2,0.7-0.5,1.5-0.7,2.2L89,128.4z M179.5,82.3c-3.5,0.1-7-1.2-9.4-3.8c-2.5-2.7-3.8-6.2-3.6-9.8
	c-0.1-3.6,1.3-7,3.9-9.5c2.5-2.4,5.8-3.7,9.2-3.7l0.4,0c4.1,0,7.4,1.2,9.7,3.7c2.4,2.6,3.7,6,3.5,9.5c0.1,3.6-1.2,7.2-3.7,9.8
	c-2.5,2.5-6,3.9-9.5,3.8L179.5,82.3z M167.7,174.9V92.8c0-1,0.5-1.5,1.4-1.5h21.1c0.9,0,1.4,0.5,1.4,1.5v82.1c0,1.1-0.5,1.7-1.4,1.7
	h-21c-1,0-1.5-0.5-1.5-1.5L167.7,174.9z"/>
</svg>
