<?xml version="1.0" encoding="utf-8"?>
<!-- Generator: Adobe Illustrator 26.5.0, SVG Export Plug-In . SVG Version: 6.00 Build 0)  -->
<svg version="1.1" id="レイヤー_1" xmlns="http://www.w3.org/2000/svg" xmlns:xlink="http://www.w3.org/1999/xlink" x="0px"
	 y="0px" viewBox="0 0 198.48 271.07" style="enable-background:new 0 0 198.48 271.07;" xml:space="preserve">
<style type="text/css">
	.st0{fill:#4D4D4D;}
	.st1{fill:#666666;}
	.st2{fill:#EBEBEB;}
	.st3{fill:#FFFFFF;}
</style>
<g>
	<path class="st0" d="M194.85,53.27l-17.5,195.99l-78.64,21.8L20.28,249.3L2.8,53.27H194.85L194.85,53.27z"/>
	<path class="st1" d="M98.82,254.4l63.55-17.62L177.32,69.3h-78.5L98.82,254.4L98.82,254.4z"/>
	<path class="st2" d="M64.81,117.38h34.01V93.34H38.54l0.58,6.45l5.91,66.25h53.8V142H67.01L64.81,117.38L64.81,117.38z"/>
	<path class="st2" d="M70.23,178.06H46.1l3.37,37.75l49.25,13.67l0.11-0.03v-25.01l-0.11,0.03l-26.78-7.23L70.23,178.06
		L70.23,178.06z"/>
	<path d="M20.67,0h12.22v12.07h11.18V0h12.22v36.55H44.07V24.31H32.89v12.24H20.67V0L20.67,0L20.67,0z"/>
	<path d="M72.35,12.12H61.59V0h33.74v12.12H84.57v24.43H72.35V12.12L72.35,12.12L72.35,12.12z"/>
	<path d="M100.68,0h12.74l7.84,12.84L129.09,0h12.74v36.55h-12.17V18.44l-8.41,13h-0.21l-8.41-13v18.12h-11.95L100.68,0L100.68,0z"
		/>
	<path d="M147.91,0h12.22v24.47h17.18v12.08h-29.4V0L147.91,0z"/>
	<path class="st3" d="M98.74,166.04h29.6l-2.79,31.18l-26.81,7.24v25.01l49.29-13.66l0.36-4.06l5.65-63.29l0.59-6.46H98.74V166.04
		L98.74,166.04z"/>
	<path class="st3" d="M98.74,117.32v0.06h58.07l0.48-5.4l1.1-12.19l0.57-6.45H98.74V117.32L98.74,117.32z"/>
</g>
</svg>
