<?xml version="1.0" encoding="UTF-8"?><svg id="_レイヤー_1" xmlns="http://www.w3.org/2000/svg" viewBox="0 0 136.92 68.22"><g><polygon points="5.52 18.35 14.22 18.35 14.22 1.8 19.74 1.8 19.74 .96 0 .96 0 1.8 5.52 1.8 5.52 18.35"/><polygon points="17.23 18.35 22.75 18.35 20.82 15.84 34.2 1.8 39 1.8 39 .96 27 .96 27 1.8 33.06 1.8 17.23 18.35"/><polygon points="27.37 24.35 16.61 24.35 30.66 42.84 25.26 42.84 25.26 43.68 45.3 43.68 45.3 42.84 41.58 42.84 27.37 24.35"/><polygon points="14.22 24.35 5.52 24.35 5.52 42.84 0 42.84 0 43.68 19.74 43.68 19.74 42.84 14.22 42.84 14.22 24.35"/><path d="M56.55,18.35c.07-1.61,.18-3.16,.33-4.61,.28-2.64,.86-4.92,1.74-6.84,.88-1.92,2.16-3.41,3.84-4.47,1.68-1.06,3.92-1.59,6.72-1.59,3,0,5.35,.57,7.05,1.71,1.7,1.14,2.97,2.68,3.81,4.62,.84,1.94,1.35,4.18,1.53,6.72,.1,1.44,.17,2.94,.21,4.46h9.53c-.31-1.92-.86-3.7-1.64-5.36-1.3-2.74-3-5.07-5.1-6.99-2.1-1.92-4.5-3.4-7.2-4.44-2.7-1.04-5.43-1.56-8.19-1.56-2.56,0-5.18,.53-7.86,1.59-2.68,1.06-5.1,2.57-7.26,4.53-2.16,1.96-3.93,4.32-5.31,7.08-.8,1.61-1.37,3.33-1.7,5.15h9.5Z"/><path d="M81.82,24.35c-.04,2.19-.14,4.27-.3,6.22-.22,2.66-.75,4.96-1.59,6.9-.84,1.94-2.1,3.46-3.78,4.56-1.68,1.1-4,1.65-6.96,1.65-2.24,0-4.17-.32-5.79-.96-1.62-.64-2.94-1.77-3.96-3.39s-1.77-3.8-2.25-6.54c-.4-2.31-.64-5.12-.7-8.44h-9.71c.2,2.4,.79,4.66,1.77,6.79,1.24,2.68,2.89,5.01,4.95,6.99,2.06,1.98,4.45,3.54,7.17,4.68,2.72,1.14,5.56,1.71,8.52,1.71s5.85-.59,8.55-1.77c2.7-1.18,5.08-2.79,7.14-4.83,2.06-2.04,3.7-4.41,4.92-7.11,.93-2.06,1.51-4.22,1.73-6.46h-9.7Z"/><polygon points="130.44 18.35 131.4 18.35 131.4 1.8 136.92 1.8 136.92 .96 124.92 .96 124.92 1.8 130.44 1.8 130.44 18.35"/><polygon points="101.7 18.35 102.66 18.35 102.66 5.22 102.78 5.22 112 18.35 122.51 18.35 110.34 .96 96.18 .96 96.18 1.8 101.7 1.8 101.7 18.35"/><polygon points="102.66 24.35 101.7 24.35 101.7 42.84 96.18 42.84 96.18 43.68 108.18 43.68 108.18 42.84 102.66 42.84 102.66 24.35"/><polygon points="130.44 24.35 130.44 29.52 130.32 29.52 126.7 24.35 116.21 24.35 129.78 43.68 131.4 43.68 131.4 24.35 130.44 24.35"/></g><g><path d="M.72,51.13v-.34H2.93c.82,0,1.63-.01,2.45-.04,.82-.02,1.63-.04,2.45-.04,.72,0,1.48,.05,2.28,.14,.8,.1,1.59,.27,2.38,.52,.78,.25,1.53,.58,2.23,1s1.33,.94,1.87,1.58c.54,.64,.98,1.4,1.3,2.28,.32,.88,.48,1.91,.48,3.1s-.16,2.19-.48,3.07c-.32,.88-.75,1.64-1.28,2.28-.54,.64-1.15,1.17-1.84,1.58-.69,.42-1.4,.75-2.15,1-.74,.25-1.48,.42-2.21,.52-.73,.1-1.4,.14-2.03,.14-.91,0-1.82,0-2.72-.02-.9-.02-1.81-.02-2.72-.02H.72v-.34H2.93v-16.42H.72Zm6.96,16.49c1.04,0,1.93-.12,2.66-.37,.74-.25,1.36-.58,1.86-1.01,.5-.42,.9-.91,1.2-1.45,.3-.54,.52-1.12,.67-1.72,.15-.6,.25-1.2,.3-1.8,.05-.6,.07-1.16,.07-1.69,0-1.3-.08-2.47-.24-3.52-.16-1.05-.48-1.94-.95-2.69-.47-.74-1.14-1.32-1.99-1.72-.86-.4-1.98-.6-3.37-.6-.32,0-.61,0-.86,.01-.26,0-.46,.03-.62,.06v16.42c.46,.05,.89,.07,1.27,.07Z"/><path d="M42.41,50.79v4.1h-.31c-.08-.27-.22-.62-.41-1.04s-.46-.84-.8-1.24c-.34-.4-.79-.75-1.33-1.04-.54-.3-1.21-.44-1.99-.44h-3.82v7.42h1.34c.59,0,1.09-.08,1.5-.25,.41-.17,.75-.41,1.02-.72s.5-.69,.67-1.13c.18-.44,.32-.93,.43-1.48h.31v7.46h-.31c-.11-.46-.24-.91-.4-1.34-.15-.43-.36-.81-.61-1.14-.26-.33-.57-.59-.95-.78s-.84-.29-1.4-.29h-1.61v8.66h3.94c.74,0,1.4-.12,1.99-.37s1.12-.6,1.57-1.04c.46-.45,.84-.97,1.14-1.57,.3-.6,.54-1.24,.7-1.93h.31v5.26h-15.34v-.34h2.21v-16.42h-2.21v-.34h14.35Z"/><path d="M54.03,62.55c.03,.19,.09,.44,.17,.76s.2,.65,.35,1.01c.15,.36,.34,.73,.58,1.1s.52,.72,.85,1.04c.37,.37,.72,.65,1.07,.84,.34,.19,.67,.33,.98,.42s.61,.13,.89,.14c.28,0,.54,.01,.78,.01,.85,0,1.54-.13,2.09-.4,.54-.26,.97-.59,1.28-.97,.31-.38,.53-.79,.66-1.21,.13-.42,.19-.8,.19-1.12,0-.59-.14-1.08-.42-1.46-.28-.38-.65-.7-1.12-.96-.46-.26-.99-.47-1.58-.65-.59-.18-1.2-.36-1.82-.54-.62-.18-1.23-.4-1.82-.65-.59-.25-1.12-.57-1.58-.96-.46-.39-.84-.88-1.12-1.45-.28-.58-.42-1.3-.42-2.16,0-.64,.14-1.26,.43-1.85,.29-.59,.69-1.12,1.2-1.57,.51-.46,1.12-.82,1.84-1.1s1.48-.42,2.32-.42c.53,0,.99,.05,1.39,.14,.4,.1,.75,.2,1.06,.3,.3,.1,.57,.2,.8,.3,.23,.1,.44,.14,.64,.14,.22,0,.37-.04,.44-.11s.15-.2,.23-.4h.38v4.56h-.31c-.19-.56-.4-1.11-.61-1.66-.22-.54-.49-1.04-.83-1.48-.34-.44-.76-.8-1.27-1.07-.51-.27-1.16-.41-1.94-.41-.64,0-1.2,.09-1.69,.26-.49,.18-.9,.41-1.24,.7-.34,.29-.59,.61-.77,.96-.18,.35-.26,.71-.26,1.08,0,.56,.15,1.02,.44,1.39,.3,.37,.68,.68,1.16,.95,.48,.26,1.03,.49,1.64,.68,.62,.19,1.25,.39,1.9,.6,.65,.21,1.28,.44,1.9,.68,.62,.25,1.16,.56,1.64,.95,.48,.38,.87,.85,1.16,1.39,.3,.54,.44,1.22,.44,2.02s-.16,1.53-.48,2.23c-.32,.7-.77,1.32-1.36,1.85-.58,.53-1.28,.95-2.09,1.26-.81,.31-1.71,.47-2.7,.47-.5,0-.99-.05-1.48-.14-.49-.1-.94-.2-1.37-.3-.42-.1-.8-.2-1.13-.3-.33-.1-.57-.14-.73-.14-.22,0-.38,.04-.48,.11-.1,.07-.18,.22-.26,.44h-.38v-5.33h.36Z"/><path d="M84.2,50.79v.34h-2.21v16.42h2.21v.34h-7.9v-.34h2.21v-16.42h-2.21v-.34h7.9Z"/><path d="M108.12,55.69c-.42-1.57-1.04-2.79-1.87-3.66-.83-.87-1.94-1.3-3.34-1.28-1.1,0-1.99,.21-2.66,.64-.67,.42-1.19,.98-1.55,1.66-.36,.68-.6,1.46-.71,2.33-.11,.87-.17,1.76-.17,2.65v2.09c0,1.46,.1,2.68,.29,3.67,.19,.99,.49,1.79,.9,2.4,.41,.61,.94,1.04,1.58,1.31,.65,.26,1.42,.4,2.32,.4,.74,0,1.32-.13,1.75-.4,.43-.26,.76-.62,1-1.08,.23-.46,.38-1,.44-1.62,.06-.62,.1-1.3,.1-2.04v-.91h-2.47v-.34h7.42v.34h-1.56v5.5h-.43c-.03-.19-.12-.33-.28-.42-.15-.09-.32-.13-.52-.13-.38,0-.75,.08-1.09,.23-.34,.15-.72,.32-1.12,.49-.4,.18-.86,.34-1.38,.49-.52,.15-1.15,.23-1.88,.23-1.17,0-2.3-.23-3.38-.68-1.09-.46-2.04-1.08-2.87-1.87s-1.48-1.72-1.98-2.8c-.5-1.07-.74-2.23-.74-3.48,0-1.36,.28-2.59,.83-3.7s1.26-2.05,2.12-2.83c.86-.78,1.83-1.39,2.89-1.81,1.06-.42,2.11-.64,3.13-.64,.48,0,.94,.05,1.39,.14,.45,.1,.86,.2,1.25,.3s.73,.2,1.03,.3c.3,.1,.56,.14,.77,.14,.22,0,.38-.04,.48-.11,.1-.07,.18-.2,.26-.4h.41v4.9h-.36Z"/><path d="M125.6,50.79l7.99,11.42h.05v-11.09h-2.21v-.34h4.8v.34h-2.21v16.75h-.65l-10.8-15.38h-.05v15.05h2.21v.34h-4.8v-.34h2.21v-16.42h-2.21v-.34h5.66Z"/></g></svg>