<?xml version="1.0" encoding="utf-8"?>
<!-- Generator: Adobe Illustrator 26.5.0, SVG Export Plug-In . SVG Version: 6.00 Build 0)  -->
<svg version="1.1" id="レイヤー_1" xmlns="http://www.w3.org/2000/svg" xmlns:xlink="http://www.w3.org/1999/xlink" x="0px"
	 y="0px" viewBox="0 0 256 249.6" style="enable-background:new 0 0 256 249.6;" xml:space="preserve">
<style type="text/css">
	.st0{fill:#666666;}
	.st1{fill:#E6E6E6;}
</style>
<g>
	<path class="st0" d="M42.5,0h171C236.97,0,256,19.03,256,42.5v164.6c0,23.47-19.03,42.5-42.5,42.5h-171
		C19.03,249.6,0,230.57,0,207.1V42.5C0,19.03,19.03,0,42.5,0z"/>
	<path class="st1" d="M57.64,175.03V65.3c0-0.8,0.34-1.2,1.03-1.2h1.09l0,0l1.86-0.02l0,0l2.58-0.05l0,0l8.65-0.18l0,0l9.27-0.17
		l0,0c3.26-0.06,6.5-0.09,9.7-0.09c8.7,0,16.03,1.09,21.98,3.26c5.37,1.82,10.27,4.81,14.34,8.76c3.45,3.42,6.12,7.55,7.81,12.11
		c1.61,4.43,2.42,9.11,2.41,13.82c0,9.16-2.12,16.72-6.35,22.67c-4.15,5.81-9.93,10.25-16.6,12.76l-0.57,0.21
		c-6.97,2.6-14.69,3.54-23.16,3.6h-1.32l0,0l-1.95-0.01l0,0l-0.99-0.01l0,0l-1.1-0.03l0,0l-0.66-0.03l0,0l-0.4-0.02l0,0l-0.99-0.04
		l0,0l-1.21-0.02l0,0l-1.82-0.01c-0.13,0-0.27,0-0.41,0v34.26c0.06,0.43-0.08,0.86-0.39,1.16c-0.3,0.3-0.73,0.45-1.16,0.39H58.85
		C58.04,176.41,57.64,175.95,57.64,175.03z M80.84,84.7v35.79c1.49,0.12,2.86,0.17,4.12,0.17h5.67c3.91-0.01,7.79-0.59,11.53-1.73
		l0.75-0.23c3.4-1.01,6.44-2.98,8.76-5.67c2.15-2.54,3.27-6.04,3.34-10.49v-0.5c0.09-3.32-0.77-6.6-2.49-9.45
		c-1.8-2.75-4.41-4.88-7.47-6.1c-3.99-1.55-8.26-2.28-12.54-2.15l-2.18,0.01l0,0l-1.37,0.01l0,0l-1.31,0.02l0,0l-1.85,0.04l0,0
		l-1.35,0.04l0,0l-0.7,0.03l0,0l-0.94,0.04l0,0l-0.8,0.05l0,0l-0.45,0.04l0,0l-0.39,0.04c-0.06,0.01-0.12,0.01-0.17,0.02L80.84,84.7
		z M204.77,113.99c-3-1.54-6.17-2.7-9.46-3.44l-0.76-0.16c-3.61-0.83-7.3-1.29-11.01-1.36l-0.93-0.01c-2.17-0.06-4.34,0.2-6.44,0.77
		c-1.33,0.3-2.52,1.06-3.35,2.15c-0.56,0.87-0.86,1.88-0.86,2.92c0.03,1,0.39,1.97,1.03,2.75c0.91,1.07,2.01,1.96,3.23,2.64
		l0.37,0.2c2.45,1.32,4.97,2.49,7.56,3.52c5.76,1.93,11.27,4.55,16.4,7.81c3.49,2.21,6.39,5.24,8.42,8.84
		c1.71,3.41,2.56,7.18,2.49,10.99c0.1,5.03-1.34,9.98-4.12,14.17c-2.98,4.26-7.13,7.56-11.94,9.53c-5.04,2.21-11.22,3.36-18.56,3.43
		h-0.76c-4.55,0.05-9.09-0.35-13.56-1.19l-0.96-0.19c-3.76-0.69-7.43-1.84-10.91-3.43c-0.72-0.37-1.17-1.09-1.2-1.89v-18.72
		c-0.04-0.37,0.12-0.73,0.43-0.94c0.3-0.17,0.68-0.14,0.94,0.09c4.11,2.42,8.57,4.19,13.22,5.24c4.1,1.03,8.31,1.58,12.54,1.63
		c4.01,0,6.95-0.52,8.84-1.55c1.74-0.8,2.85-2.55,2.83-4.47c0-1.49-0.86-2.92-2.58-4.29c-0.72-0.58-1.75-1.2-3.1-1.88l-0.64-0.32
		l0,0l-0.69-0.32c-0.12-0.05-0.24-0.11-0.36-0.16l-0.75-0.33c-0.13-0.06-0.26-0.11-0.39-0.17l-0.82-0.34
		c-0.14-0.06-0.28-0.12-0.43-0.17l-0.89-0.36c-0.15-0.06-0.3-0.12-0.46-0.18l-0.95-0.37l0,0l-1-0.37l0,0
		c-5.39-1.88-10.51-4.48-15.2-7.73c-3.36-2.33-6.12-5.42-8.07-9.02c-1.69-3.38-2.54-7.12-2.49-10.9c-0.01-4.54,1.24-9,3.61-12.88
		c2.7-4.27,6.58-7.67,11.16-9.79c5.04-2.52,11.33-3.78,18.89-3.78c4.43-0.04,8.85,0.28,13.22,0.94c3.17,0.4,6.27,1.24,9.21,2.49
		c0.47,0.14,0.85,0.49,1.03,0.94c0.12,0.42,0.17,0.85,0.17,1.29v17.35c0.02,0.41-0.17,0.8-0.52,1.03
		C205.78,114.22,205.23,114.22,204.77,113.99z"/>
</g>
</svg>
