<?xml version="1.0" encoding="utf-8"?>
<!-- Generator: Adobe Illustrator 26.5.0, SVG Export Plug-In . SVG Version: 6.00 Build 0)  -->
<svg version="1.1" id="レイヤー_1" xmlns="http://www.w3.org/2000/svg" xmlns:xlink="http://www.w3.org/1999/xlink" x="0px"
	 y="0px" viewBox="0 0 256 293" style="enable-background:new 0 0 256 293;" xml:space="preserve">
<style type="text/css">
	.st0{fill:#666666;}
</style>
<g>
	<path class="st0" d="M78.67,179.24c-4.65,2.91-11.66,7.62-17.08,12.74c-8.9,8.4-10.76,20.06-6.07,22.78
		c4.34,2.52,14.48-0.48,21.73-8.39c7.61-8.31,10.75-18.84,7.51-30.8c-0.38,0.23-0.76,0.46-1.12,0.67l0.01,0.02l-0.49,0.28
		C81.27,177.67,79.73,178.61,78.67,179.24L78.67,179.24z M209.34,175.47c-2.63,5.72-2.77,7.57-1.97,8.14
		c3.82-1.37,10.15-4.68,10.2-13.55c0.01-1.33-0.29-2.75-0.76-4.24C212.73,169.44,210.37,173.23,209.34,175.47L209.34,175.47z
		 M250.35,158.16c-10.21-1.19-18.18,0.24-24.36,2.82c1.15,2.98,2.03,6.08,2.15,9.21c0.29,6.86-4.44,11.94-9.36,15.57
		c-2.88,2.11-5.93,3.52-8.5,4.37c-2.05,0.87-4.78,1.76-6.72,1.37c-4.27-0.87-6.54-4.66-3.64-13.03c1.57-4.53,6.1-11.42,13.4-17.36
		c-1.67-3.43-3.52-6.92-4.47-10.13c-1.86-6.33-2.43-10.15-2.43-10.15s-6.02,12.49-13.79,23.84c-0.45,0.66-0.89,1.31-1.34,1.95
		c1.53,3.55,2.73,7.3,2.89,11.08c0.29,6.86-2.68,12.05-7.61,15.67c-2.67,1.97-5.52,3.33-7.96,4.19c-1.56,0.68-4.74,1.8-9.26,2.11
		c-2.47,0.17-4.85,0.02-6.18-0.99c-1.83-1.38-2.05-3.08-1.1-5.41c0.8-1.97,6.79-8.81,11.8-14.79c1.39-1.65,2.71-3.34,3.89-4.9
		l-0.03-0.07c0,0,0.91-1.17,2.38-3.22c-1.83-3.95-4.16-8.06-5.25-11.79c-1.86-6.33-2.43-10.15-2.43-10.15s-6.1,15.65-12.46,28.14
		c-4.92,9.67-8.21,15.54-9.69,18.11l-0.01,0.1c0,0-0.22,0.38-0.6,0.96l-0.28,0.48l-0.01-0.04c-1.65,2.44-5.35,7.21-9.04,7.21
		c-10.11,0-6.4-20.53-6.4-20.53s-2.96,7.6-6.29,14.13c-2.71,5.32-5.19,9.83-10.59,9.83c-1.56,0-4.02-0.04-6.07-1.99
		c-4.64-4.41-8.19-15.61-7.5-24.29c0.59-7.38,1.73-12.49,3.29-16.75c-2.77,1.51-5.98,3.3-9.24,5.22l-5.02,2.96l0.16,0.29
		c4.15,8.03,5.26,25.62-3.79,39.13c-9.05,13.51-25.9,21.73-42.32,17.17c-5.3-1.48-13.3-12.43-6.4-27.71
		c6.09-13.47,30.42-26.2,36.83-29.38l1.76-0.97C66,159.24,34.07,144.15,29.6,120.97c-1.26-6.53,1.8-22.13,20.96-40.07
		c16.11-15.08,38.53-26.64,59.24-34c34.79-12.37,71.55-5.07,77.2,17.11c5.56,21.81-13.36,47.91-37.6,57.29
		c-21.64,8.37-39.53,7.05-46.88,4.63c-8.35-2.75-13.25-8.26-14.45-11.37c-0.47-1.22-1.28-3.26,0-3.97c0.78-0.43,1.1-0.33,3.2,1.99
		c2,2.2,10.02,8.11,25.26,6.4c40-4.48,64.1-35.58,56.48-52.32c-5.33-11.71-36.16-17-74.68,2.21
		c-47.02,23.44-49.57,42.77-49.97,50.11c-1.1,20.19,24.9,30.81,38.97,45.83l0.54,0.6c2.63-1.45,5.41-2.99,8.14-4.48
		c7.09-3.9,13.78-7.55,16.9-9.26c4.95-7.2,15-15.14,22.25-15.14c11.6,0,7.61,16.67,7.61,16.67s0.24-0.76,0.55-0.77
		c0.33-0.01,1.61-2.2,5.19-0.89c3.68,1.35,2.84,3.93,2.87,4.2c0.04,0.51-4.35,15.33-6.18,24.84c-0.87,4.54-0.37,7.84-0.11,7.84
		c0.36,0,1.09-1.15,1.77-2.39l-0.01-0.04c0,0,0.51-0.94,1.37-2.63l0.17-0.35l0.01,0.02c1.01-1.98,2.43-4.9,4.08-8.51
		c3.22-7.1,15.51-34.5,16.55-37.53c1.04-3.03,1.58-6.17,2.1-7.51c0.51-1.34,4.85-2.36,9.92-2.32c5.08,0.04,5.59,2.2,5.63,2.65
		c0.04,0.45-2.41,6.46-2.98,10.71c-0.56,4.25-0.02,6.37,0.44,9.94c0.3,2.33,1.76,5.29,3.49,8.65c5.25-8.59,14.49-25.01,15.38-29.62
		c0.61-3.15,1.58-6.17,2.1-7.51c0.51-1.34,4.85-2.36,9.92-2.32c5.08,0.04,5.59,2.2,5.63,2.65c0.04,0.45-2.42,6.46-2.98,10.71
		c-0.56,4.24-0.02,6.37,0.44,9.94c0.4,3.05,2.76,7.16,5.1,11.82c6.39-3.15,13.91-5.26,22.71-5.31c3.65-0.02,7.88,0.35,10.06,1.03
		V80.27c0-4.95-2.54-9.52-6.83-11.99L134.62,2.07c-4.28-2.47-9.53-2.47-13.81,0L6.57,68.24C2.29,70.72,0,75.29,0,80.24v132.47
		c0,4.95,2.3,9.52,6.58,11.99L121,290.92c4.28,2.48,9.48,2.48,13.76,0l114.47-66.23c4.28-2.48,6.78-7.05,6.78-11.99v-53.54
		C254.55,158.74,252.42,158.4,250.35,158.16L250.35,158.16z M127.12,151.23c-2.46,2.75-6.65,9.85-8.6,15.79
		c-3.89,11.79-2.21,23.78,0.55,24.5c3.22,0.84,8.5-14.92,11.03-21.09c1.59-3.86,7.75-21,6.4-23.29
		C135.44,145.35,131.07,146.8,127.12,151.23L127.12,151.23z M171.68,190.98c0,0-0.78,0.73-0.44,0.94c0.46,0.27,1.44-0.08,2.51-0.64
		c3.03-1.91,9.83-6.66,9.84-13.7c0-0.2-0.01-0.4-0.02-0.62c-1.58,2.07-3.03,3.91-4.28,5.48
		C177.15,185.1,171.68,190.98,171.68,190.98L171.68,190.98z"/>
</g>
</svg>
