<?xml version="1.0" encoding="utf-8"?>
<!-- Generator: Adobe Illustrator 26.5.0, SVG Export Plug-In . SVG Version: 6.00 Build 0)  -->
<svg version="1.1" id="レイヤー_1" xmlns="http://www.w3.org/2000/svg" xmlns:xlink="http://www.w3.org/1999/xlink" x="0px"
	 y="0px" viewBox="0 0 256 249.6" style="enable-background:new 0 0 256 249.6;" xml:space="preserve">
<style type="text/css">
	.st0{fill:#666666;}
	.st1{fill:#E6E6E6;}
</style>
<g>
	<path class="st0" d="M42.5,0h171C236.97,0,256,19.03,256,42.5v164.6c0,23.47-19.03,42.5-42.5,42.5h-171
		C19.03,249.6,0,230.57,0,207.1V42.5C0,19.03,19.03,0,42.5,0z"/>
	<path class="st1" d="M124.05,149.79H84.38l-8.07,25.07c-0.23,0.94-1.09,1.59-2.06,1.55H54.16c-1.15,0-1.55-0.63-1.2-1.89L87.3,75.6
		c0.34-1.03,0.69-2.2,1.03-3.52c0.45-2.29,0.68-4.62,0.69-6.95c-0.05-0.33,0.06-0.67,0.3-0.9c0.24-0.24,0.57-0.35,0.9-0.3h27.31
		c0.8,0,1.26,0.29,1.37,0.86l38.98,109.91c0.34,1.15,0,1.72-1.03,1.72h-22.33c-0.79,0.09-1.53-0.43-1.72-1.2L124.05,149.79z
		 M90.57,128.15h27.13l-0.39-1.28l0,0l-0.62-2.02l0,0l-0.44-1.42l0,0l-0.71-2.24l0,0l-1.5-4.71l0,0l-1.32-4.17l0,0l-3.43-10.87l0,0
		c-0.88-2.8-1.7-5.51-2.46-8.14l-0.63-2.21l0,0l-0.73-2.61l0,0l-1.12-4.05c-0.07-0.26-0.14-0.51-0.21-0.76h-0.17
		c-0.86,4.12-1.91,8.2-3.14,12.23l-2.55,8.19l0,0l-1.4,4.53l0,0l-1.41,4.58c-0.26,0.83-0.51,1.65-0.76,2.46l-0.76,2.4l0,0
		l-0.76,2.34l0,0l-0.75,2.28l0,0l-0.75,2.23c-0.25,0.73-0.5,1.46-0.74,2.17L90.57,128.15z M181.07,82.13
		c-3.54,0.14-6.98-1.23-9.45-3.78c-2.46-2.65-3.76-6.18-3.61-9.79c-0.13-3.58,1.28-7.05,3.86-9.53c2.47-2.37,5.75-3.69,9.17-3.7
		h0.37c4.12,0,7.36,1.23,9.7,3.69c2.39,2.58,3.66,6.01,3.52,9.53c0.15,3.63-1.19,7.16-3.69,9.79c-2.53,2.5-5.96,3.86-9.51,3.79
		H181.07z M169.22,174.69V92.6c0-1.03,0.46-1.55,1.37-1.55h21.12c0.92,0,1.37,0.52,1.37,1.55v82.09c0,1.15-0.46,1.72-1.37,1.72
		h-20.95c-0.98,0-1.49-0.51-1.54-1.54V174.69z"/>
</g>
</svg>
