<?xml version="1.0" encoding="utf-8"?>
<!-- Generator: Adobe Illustrator 26.5.0, SVG Export Plug-In . SVG Version: 6.00 Build 0)  -->
<svg version="1.1" id="レイヤー_1" xmlns="http://www.w3.org/2000/svg" xmlns:xlink="http://www.w3.org/1999/xlink" x="0px"
	 y="0px" viewBox="0 0 512 116" style="enable-background:new 0 0 512 116;" xml:space="preserve">
<style type="text/css">
	.st0{fill-rule:evenodd;clip-rule:evenodd;fill:#333333;}
	.st1{fill-rule:evenodd;clip-rule:evenodd;fill:#808080;}
</style>
<g>
	<path class="st0" d="M489.66,8.6l21.42,0.12c0,0-39.83,53.96-43.08,58.36c-1.06,1.42-2.66,2.96-3.47,4.86
		c-2.06,4.79-4.17,15.29-4.17,15.29l-19.6,0.1c0,0,3.05-10.94,2.92-16.77c-0.11-5.09-2.71-10.18-4.17-15.29
		c-1.47-5.17-3.47-15.29-3.47-15.29h20.15l2.78,11.12L489.66,8.6"/>
	<path class="st0" d="M449.1,19.98c3.95,2.38,6.38,15.53,6.38,15.53s-20.68,0.31-31.94,0.31h-9.73L402,87.23h-18.06
		c0,0,11.24-55.87,13.9-66c0.86-3.28,5.89-2.72,14.39-2.72h13.57C434.55,18.51,444.79,17.39,449.1,19.98"/>
	<path class="st0" d="M365,45.02c0,0,0.56-3.3-1.91-7.12c-2.11-3.26-4.06-4.02-9.62-4.19c-15.7-0.49-15.39,11.14-15.39,11.14
		L365,45.02L365,45.02z M382.02,31.7c2.3,8.3-2.08,27.79-2.08,27.79s-22.89-0.38-35.43,0c-3.9,0.12-8.57-0.42-9.73,1.39
		c-1.63,2.54,0.6,6.45,2.49,8.11c2.18,1.9,6.41,2.12,7.94,2.31c10.18,1.29,31.48,0.33,31.48,0.33L373,87.97
		c0,0-30.1,1.51-45.16-2.08c-2.97-0.71-5.76-2.14-7.64-4.17c-0.51-0.56-0.96-1.31-1.45-1.97c-0.39-0.52-1.52-2.24-2.03-3.59
		c-3.44-9.16,0.4-26.72,4.17-36.13c0.44-1.09,0.99-2.47,1.56-3.65c0.72-1.47,1.33-3.12,1.91-3.99c0.39-0.6,0.87-0.99,1.27-1.56
		c0.46-0.67,1.01-1.33,1.51-1.91c1.39-1.61,2.97-2.75,4.86-4.17c6.27-4.7,17.63-8.35,31.27-6.95c5.13,0.53,12.89,2.36,16.68,7.64
		C380.95,26.86,381.45,29.66,382.02,31.7L382.02,31.7L382.02,31.7z"/>
	<path class="st0" d="M299.17,18.45l17.52-0.1c0,0-9.76,46.31-14.74,68.89H281.8c-14.08,0-26.62,1.74-31.96-8.34
		c-5.18-9.79-0.24-25.89,2.08-36.82c1.64-7.74,5.09-23.56,5.09-23.56l18.15-0.17c0,0-5.13,24.63-7.26,36.93
		c-0.76,4.4-2.34,8.55-0.69,11.81c1.56,3.1,3.75,3.32,10.42,3.47c2.11,0.05,9.03,0,9.03,0L299.17,18.45"/>
	<path class="st0" d="M217.18,51.8c1.83-6.52,4.51-13.58,4.17-19.45c-0.37-6.28-5.63-12-9.03-13.2
		c-10.23-3.61-19.81,1.44-23.62,5.56c-4.93,5.34-6.59,11.57-8.34,20.15c-1.3,6.37-2.36,13.1,0,18.06
		c4.18,8.78,17.22,6.86,31.27,6.95C213.71,64.27,215.43,58,217.18,51.8L217.18,51.8L217.18,51.8z M241.5,26.09
		c2,14.55-5.68,30.61-10.96,44.57c5.39,0.49,10.12-0.08,10.46,0.33c0.35,0.52-3.61,16.67-5,16.71c-4.28,0.11-18.46,0.23-24.37,0.23
		c-19.29,0-37.34,1.26-46.55-8.34c-3.74-3.9-6.32-10.58-6.95-15.29c-1.04-7.85,0.26-16.49,2.08-23.62
		c1.65-6.43,3.76-12.51,6.95-18.07c8.11-14.15,22.21-24.66,45.86-22.23c4.59,0.47,11.17,2.48,15.29,4.86
		c0.28,0.17,1.28,0.96,1.51,1.1C235.37,9.88,240.43,18.32,241.5,26.09L241.5,26.09L241.5,26.09z"/>
	<path class="st0" d="M156.13,18.53c-1.17,5.32-2.33,11.34-3.56,16.59h-19.45c1.51-5.82,2.66-11.61,4.17-16.68
		C143.51,18.45,149.3,18.53,156.13,18.53"/>
	<path class="st0" d="M132.42,39.98h18.76c-2.45,13.58-7.31,35.48-11.12,50.72c-2.38,9.54-3.97,16.5-10.42,21.54
		c-0.58,0.45-0.91,0.24-1.39,0.7c-1.19,1.13-6.68,2.45-9.73,2.78c-4.95,0.54-10.54,0.07-16.62-0.05c1.59-5.82,3.39-12.8,4.81-18.01
		c14.82,1.79,15.2-12.21,18.06-25.71C126.44,64.15,131.47,43.11,132.42,39.98"/>
	<g transform="translate(0.000000, 8.827586)">
		<path class="st1" d="M88.65,66.59l-0.4,1.04c-6.85,13.34-18.99,21.52-36.3,21.89c-8.09,0.17-15.81-1.91-20.84-4.17
			C20.23,80.47,11.08,71.41,6.09,61.73c-7.16-13.88-8.46-33.18,6.44-47.59c0.23,0-1.81,3.13-1.58,3.13l-0.41,1.33
			C-0.19,52.2,32.88,81,65.03,77.71C72.75,76.92,82.6,72.68,88.65,66.59"/>
		<path class="st1" d="M69.19,52.69c8.09,0.06,16.54-3.72,21.54-9.03c-4.38,11.11-17.05,18.25-34.04,15.98
			c-14.23-1.9-27.78-16.22-29.18-30.57c-1.02-10.44,2.62-16.67,8.62-24.23c-2.08,3.95-2.86,7-3.06,8.95
			C30.79,36.37,51.11,52.58,69.19,52.69"/>
		<path class="st1" d="M89.92,24.64c-1.26,2.88-8.5,8.33-11.69,9.01c-12.66,2.7-20.77-3.31-25.01-10.14
			c-0.63-1.02-1.8-3.81-2.01-4.52c-1.65-5.6-0.89-14.07,4.02-18.45c-1.48,4.17-1.7,9.01-0.92,12.16c0.47,1.9,1.91,5.23,3.35,7.32
			c2.62,3.81,4.28,4.73,7.64,6.75c1.51,0.91,3.14,1.64,3.84,1.84C72.34,29.55,79.07,32.03,89.92,24.64"/>
	</g>
</g>
</svg>
