<?xml version="1.0" encoding="utf-8"?>
<!-- Generator: Adobe Illustrator 26.5.0, SVG Export Plug-In . SVG Version: 6.00 Build 0)  -->
<svg version="1.1" id="レイヤー_1" xmlns="http://www.w3.org/2000/svg" xmlns:xlink="http://www.w3.org/1999/xlink" x="0px"
	 y="0px" viewBox="0 0 256 249.6" style="enable-background:new 0 0 256 249.6;" xml:space="preserve">
<style type="text/css">
	.st0{fill:#666666;}
	.st1{fill:#E6E6E6;}
</style>
<g>
	<path class="st0" d="M42.5,0h171C236.97,0,256,19.03,256,42.5v164.6c0,23.47-19.03,42.5-42.5,42.5h-171
		C19.03,249.6,0,230.57,0,207.1V42.5C0,19.03,19.03,0,42.5,0z"/>
	<path class="st1" d="M134.58,65.64l-31.94,52.72l34.18,55.99c0.22,0.39,0.28,0.85,0.17,1.29c-0.05,0.19-0.17,0.23-0.34,0.24h-0.19
		l0,0l-0.24-0.01c-0.13,0-0.27,0.01-0.43,0.03h-24.64l0,0l-0.48-0.01c-1.33-0.04-2.28-0.22-2.87-1.2c-2.29-4.46-4.58-8.9-6.87-13.31
		c-2.01-3.86-4.12-7.78-6.34-11.77l-0.96-1.71c-2.58-4.58-5.12-9.21-7.64-13.91h-0.17c-2.29,4.58-4.67,9.16-7.13,13.74
		s-4.9,9.13-7.3,13.65c-2.4,4.52-4.87,9.02-7.38,13.48c-0.4,0.91-1.08,1.1-2.02,1.13l-0.4,0.01l0,0H38.06h-0.1l0,0l-0.34,0.03
		c-0.19,0.01-0.3-0.03-0.33-0.31c-0.06-0.42,0.03-0.85,0.26-1.2l33.14-54.44L38.41,65.47c-0.34-0.46-0.4-0.83-0.17-1.12
		c0.26-0.3,0.64-0.46,1.03-0.43h24.21c0.53-0.03,1.06,0.06,1.55,0.26c0.41,0.23,0.76,0.56,1.03,0.94c2.06,4.58,4.35,9.16,6.87,13.74
		c2.52,4.58,5.06,9.1,7.64,13.57s4.95,8.99,7.13,13.57h0.17c2.29-4.69,4.61-9.27,6.96-13.74c2.35-4.47,4.75-8.96,7.21-13.48
		c2.46-4.52,4.84-9.02,7.13-13.48c0.13-0.42,0.37-0.81,0.69-1.12c0.42-0.22,0.9-0.3,1.37-0.26h22.5c0.45-0.11,0.91,0.1,1.12,0.52
		c0.19,0.37,0.12,0.82-0.17,1.12L134.58,65.64z M185.05,178.11l-1.18,0.01c-7.9,0.12-15.74-1.52-22.93-4.81
		c-6.7-3.1-12.3-8.16-16.06-14.51c-3.79-6.3-5.74-14.14-5.84-23.54v-0.77c-0.06-7.88,1.95-15.64,5.84-22.5
		c3.9-6.79,9.57-12.38,16.41-16.17l0.59-0.32c7.44-4.12,16.43-6.18,26.96-6.18l0.46,0.01l0,0l0.53,0.02l0,0l0.59,0.03l0,0l0.66,0.04
		l0,0l1.1,0.08l0,0l1.25,0.1l0,0l0.91,0.08l0,0V55.85c0-0.8,0.34-1.2,1.03-1.2h21.64c0.28-0.04,0.57,0.05,0.77,0.26
		c0.2,0.2,0.3,0.49,0.26,0.77v101.49c0,1.7,0.07,3.54,0.2,5.5l0.32,4.46l0,0l0.17,2.58l0,0c0.04,0.73-0.37,1.41-1.03,1.72
		c-5.58,2.33-11.4,4.06-17.34,5.15C195.3,177.51,190.18,178.03,185.05,178.11L185.05,178.11z M194.34,156.83v-46.88
		c-0.93-0.25-1.88-0.42-2.83-0.52c-1.17-0.12-2.35-0.17-3.52-0.17c-4.17-0.04-8.29,0.9-12.02,2.75c-3.64,1.81-6.74,4.53-9.02,7.9
		c-2.27,3.32-3.44,7.65-3.52,12.99v0.58c-0.08,3.74,0.53,7.47,1.8,10.99c1.04,2.84,2.68,5.41,4.81,7.56
		c2.04,1.97,4.51,3.44,7.21,4.29c2.86,0.92,5.84,1.39,8.84,1.37c1.6,0,3.09-0.06,4.47-0.17c1.1-0.08,2.18-0.26,3.25-0.54
		L194.34,156.83z"/>
</g>
</svg>
